<?xml version="1.0" standalone="no"?>
<!DOCTYPE svg PUBLIC "-//W3C//DTD SVG 20010904//EN"
 "http://www.w3.org/TR/2001/REC-SVG-20010904/DTD/svg10.dtd">
<svg version="1.0" xmlns="http://www.w3.org/2000/svg"
 width="271.000000pt" height="271.000000pt" viewBox="0 0 271.000000 271.000000"
 preserveAspectRatio="xMidYMid meet">
<metadata>
Created by potrace 1.11, written by Peter Selinger 2001-2013
</metadata>
<g transform="translate(0.000000,271.000000) scale(0.100000,-0.100000)"
fill="#000000" stroke="none">
<path d="M1140 2685 c-433 -69 -810 -348 -1001 -740 -99 -205 -133 -356 -133
-595 -1 -186 12 -266 70 -440 66 -197 161 -348 324 -510 203 -204 412 -316
700 -377 116 -24 380 -24 502 0 430 86 782 358 969 751 242 510 135 1132 -265
1532 -199 199 -473 336 -756 379 -116 18 -296 18 -410 0z m43 -264 c13 -5 56
-50 96 -101 l72 -92 65 84 c74 95 104 118 157 118 28 0 46 -8 74 -33 31 -29
36 -40 37 -79 1 -41 -5 -53 -61 -126 -35 -45 -63 -84 -63 -87 0 -4 24 -28 53
-55 89 -81 136 -192 137 -320 1 -137 34 -229 154 -423 85 -138 101 -194 101
-362 0 -126 -3 -148 -27 -216 -94 -268 -321 -442 -593 -456 -117 -6 -215 14
-325 68 -122 60 -241 180 -298 299 -56 118 -76 217 -70 344 7 133 36 215 129
362 95 152 117 215 129 369 6 80 17 142 30 179 24 64 83 143 132 177 18 12 35
24 36 25 2 1 -22 35 -54 75 -32 40 -63 88 -70 107 -32 95 62 180 159 143z"/>
</g>
</svg>
