<svg xmlns="http://www.w3.org/2000/svg" viewBox="0 0 98.26 153.5"><defs><style>.cls-1{fill:#fcc9b9;}</style></defs><g id="Layer_2" data-name="Layer 2"><g id="Layer_2-2" data-name="Layer 2"><path class="cls-1" d="M88.53,72.75a55.65,55.65,0,0,1-4.71-8.15,7.5,7.5,0,1,0-13.74,6A68.07,68.07,0,0,0,76,81c3.1,4.71,5.69,8.68,6.75,15H48.16a7.5,7.5,0,0,0,0,15H82.31c-3.65,15.75-17.53,27.5-34.05,27.5a35.17,35.17,0,0,1-31.54-20.2,7.5,7.5,0,0,0-13.56,6.42,50.25,50.25,0,0,0,45.1,28.78c27.57,0,50-22.75,50-50.71C98.26,87.58,93.09,79.7,88.53,72.75Z"/><path class="cls-1" d="M7.5,97.5a7.51,7.51,0,0,0,7.17-5.3C16,87.89,18.09,84.68,20.53,81c2.74-4.19,5.7-8.72,7.62-15H48.26a7.5,7.5,0,0,0,0-15h-18v-.07a18.24,18.24,0,0,1,18-18.43A18,18,0,0,1,63,40.27a7.5,7.5,0,1,0,12.32-8.55A33.17,33.17,0,0,0,61.71,20.41l6.47-8.31A7.5,7.5,0,1,0,56.34,2.9L48.26,13.28,40.18,2.9a7.5,7.5,0,1,0-11.84,9.2l6.46,8.32A33.48,33.48,0,0,0,15.26,50.93c0,10.72-3.21,15.62-7.28,21.81C5.31,76.83,2.27,81.45.33,87.8a7.51,7.51,0,0,0,5,9.37A7.28,7.28,0,0,0,7.5,97.5Z"/></g></g></svg>