<svg xmlns="http://www.w3.org/2000/svg" viewBox="0 0 103.26 158.5"><defs><style>.cls-1{fill:#fcc9b9;}</style></defs><g id="Layer_2" data-name="Layer 2"><g id="Layer_2-2" data-name="Layer 2"><path class="cls-1" d="M93.12,73.87c-2.42-3.69-4.51-6.87-5.71-11.1a10,10,0,0,0-19.24,5.46c2,7.17,5.32,12.19,8.22,16.61,2.49,3.79,4.54,6.92,5.74,11.16H50.67a10,10,0,0,0,0,20H81.51a32.28,32.28,0,0,1-61.44.26,10,10,0,0,0-18.92,6.48A52.59,52.59,0,0,0,50.76,158.5c28.95,0,52.5-23.87,52.5-53.21C103.26,89.34,97.64,80.76,93.12,73.87Z"/><path class="cls-1" d="M7.07,102.06a10,10,0,0,0,12.49-6.63c1.22-4,3.23-7,5.56-10.59A62.51,62.51,0,0,0,32.45,71H50.76a10,10,0,0,0,0-20H35.46a15.65,15.65,0,0,1,15.3-13.5,15.41,15.41,0,0,1,12.63,6.7A10,10,0,1,0,79.82,32.8,35.5,35.5,0,0,0,68,22.07l4.61-5.93A10,10,0,0,0,56.86,3.86l-6.1,7.85L44.65,3.86A10,10,0,0,0,28.86,16.14l4.61,5.92A36,36,0,0,0,15.26,53.43c0,10-2.88,14.37-6.87,20.45-2.76,4.22-5.9,9-7.95,15.69A10,10,0,0,0,7.07,102.06Z"/></g></g></svg>