<svg xmlns="http://www.w3.org/2000/svg" viewBox="0 0 133.58 153.5"><defs><style>.cls-1{fill:#1c352d;}.cls-2{fill:#fcc9b9;}</style></defs><g id="Layer_2" data-name="Layer 2"><g id="Layer_2-2" data-name="Layer 2"><circle class="cls-1" cx="66.79" cy="76.75" r="66.79"/><path class="cls-2" d="M106.19,72.75c-2.53-3.87-4.72-7.2-6-11.79a7.5,7.5,0,1,0-14.43,4.09c1.92,6.8,5.1,11.64,7.91,15.92,3.09,4.71,5.68,8.68,6.74,15H65.83a7.5,7.5,0,1,0,0,15H100a34.81,34.81,0,0,1-67.1,3.57,7.5,7.5,0,0,0-14.2,4.86A50.1,50.1,0,0,0,65.92,153.5c27.57,0,50-22.75,50-50.71C115.92,87.58,110.75,79.7,106.19,72.75Z"/><path class="cls-2" d="M23,97.17a7.29,7.29,0,0,0,2.2.33,7.49,7.49,0,0,0,7.16-5.3c1.32-4.31,3.42-7.52,5.86-11.23,2.74-4.19,5.7-8.72,7.63-15h20.1a7.5,7.5,0,0,0,0-15h-18v-.07a18.24,18.24,0,0,1,18-18.43,18,18,0,0,1,14.69,7.77,7.5,7.5,0,1,0,12.32-8.55A33.21,33.21,0,0,0,79.38,20.41l6.46-8.31A7.5,7.5,0,0,0,74,2.9L65.92,13.28,57.84,2.9A7.5,7.5,0,1,0,46,12.1l6.46,8.32A33.48,33.48,0,0,0,32.92,50.93c0,10.72-3.21,15.62-7.27,21.82C23,76.83,19.94,81.46,18,87.81A7.5,7.5,0,0,0,23,97.17Z"/></g></g></svg>