<svg xmlns="http://www.w3.org/2000/svg" viewBox="0 0 133.58 158.5"><defs><style>.cls-1{fill:#1c352d;}.cls-2{fill:#fcc9b9;}</style></defs><g id="Layer_2" data-name="Layer 2"><g id="Layer_2-2" data-name="Layer 2"><circle class="cls-1" cx="66.79" cy="79.25" r="66.79"/><path class="cls-2" d="M108.28,73.87c-2.42-3.69-4.51-6.87-5.71-11.1a10,10,0,0,0-19.24,5.46c2,7.17,5.32,12.19,8.22,16.61C94,88.63,96.09,91.76,97.29,96H65.83a10,10,0,1,0,0,20H96.67a32.28,32.28,0,0,1-61.44.26,10,10,0,0,0-18.92,6.48A52.59,52.59,0,0,0,65.92,158.5c29,0,52.5-23.87,52.5-53.21C118.42,89.34,112.8,80.76,108.28,73.87Z"/><path class="cls-2" d="M22.24,102.06a10,10,0,0,0,12.48-6.63c1.22-4,3.23-7,5.56-10.59A62.51,62.51,0,0,0,47.61,71H65.92a10,10,0,0,0,0-20H50.62a15.65,15.65,0,0,1,15.3-13.5,15.41,15.41,0,0,1,12.63,6.7A10,10,0,1,0,95,32.8,35.63,35.63,0,0,0,83.2,22.07l4.61-5.93A10,10,0,0,0,72,3.86l-6.1,7.85L59.81,3.86A10,10,0,0,0,44,16.14l4.61,5.92A36,36,0,0,0,30.42,53.43c0,10-2.88,14.37-6.87,20.45-2.76,4.22-5.9,9-8,15.69A10,10,0,0,0,22.24,102.06Z"/></g></g></svg>